<svg xmlns="http://www.w3.org/2000/svg" viewBox="0 0 520 200" width="520" height="200"><g transform="translate(100,100) scale(2.1)"><g fill="none" stroke="#FFFFFF" stroke-width="4.6" stroke-linejoin="round" stroke-linecap="round"><polygon points="0,-34 29.44,-17 29.44,17 0,34 -29.44,17 -29.44,-17"></polygon><line x1="0" y1="0" x2="0" y2="-34"></line><line x1="0" y1="0" x2="-29.44" y2="-17"></line><line x1="0" y1="0" x2="29.44" y2="-17"></line></g></g><path d="M216.55 136.24L216.55 63.76L231.42 63.76L231.42 92.04L261.17 92.04L261.17 63.76L276.04 63.76L276.04 136.24L261.17 136.24L261.17 105.67L231.42 105.67L231.42 136.24ZM308.92 137.28L308.92 137.28Q302.06 137.28 297.12 135.10Q292.18 132.92 289.11 129.17Q286.04 125.43 284.64 120.70Q283.23 115.96 283.23 110.87L283.23 110.87Q283.23 105.98 284.64 101.20Q286.04 96.41 288.95 92.51Q291.86 88.61 296.65 86.27Q301.43 83.93 308.09 83.93L308.09 83.93Q314.02 83.93 318.54 85.96Q323.06 87.99 326.08 91.58Q329.10 95.16 330.60 100.05Q332.11 104.94 332.11 110.56L332.11 110.56Q332.11 111.49 332.06 112.74Q332.01 113.99 331.80 115.55L331.80 115.55L297.48 115.55Q298.10 120.33 301.54 122.67Q304.97 125.01 309.75 125.01L309.75 125.01Q313.60 125.01 317.45 123.66Q321.30 122.31 324.21 119.81L324.21 119.81L330.76 129.80Q326.91 132.50 323.64 134.16Q320.36 135.83 316.88 136.56Q313.39 137.28 308.92 137.28ZM297.27 104.94L318.59 104.94Q318.59 102.96 317.86 101.30L317.86 101.30Q317.03 99.64 315.68 98.39Q314.33 97.14 312.46 96.46Q310.58 95.79 308.30 95.79L308.30 95.79Q304.66 95.79 302.32 97.19Q299.98 98.60 298.78 100.68Q297.58 102.76 297.27 104.94L297.27 104.94ZM362.60 136.24L349.70 136.24L333.69 84.97L348.87 84.97L356.88 114.30L365.20 84.97L377.37 84.97L385.69 114.09L393.80 84.97L409.09 84.97L392.97 136.24L380.28 136.24L371.34 105.36L362.60 136.24Z" fill="#FFFFFF"></path></svg>